<?xml version="1.0" encoding="UTF-8"?>
<svg version="1.1" xmlns="http://www.w3.org/2000/svg" width="200" height="200">
<path d="M0 0 C66 0 132 0 200 0 C200 66 200 132 200 200 C134 200 68 200 0 200 C0 134 0 68 0 0 Z " fill="#FDFEFE" transform="translate(0,0)"/>
<path d="M0 0 C0.69061523 0.16628906 1.38123047 0.33257813 2.09277344 0.50390625 C26.48946418 6.48946418 26.48946418 6.48946418 34 14 C34.09311889 15.50418739 34.11746028 17.01271356 34.11352539 18.51977539 C34.11344986 19.48069595 34.11337433 20.44161652 34.11329651 21.43165588 C34.10813522 22.476436 34.10297394 23.52121613 34.09765625 24.59765625 C34.09553383 26.19364906 34.09553383 26.19364906 34.09336853 27.82188416 C34.08775064 31.23545083 34.07519511 34.648953 34.0625 38.0625 C34.05748731 40.37044176 34.052924 42.67838455 34.04882812 44.98632812 C34.0377754 50.65757426 34.02101987 56.32878253 34 62 C35.65 62.33 37.3 62.66 39 63 C39 72.57 39 82.14 39 92 C37.02 92 35.04 92 33 92 C32.95875 92.9075 32.9175 93.815 32.875 94.75 C30.56495337 109.72030219 17.78879585 122.81740227 6.0637207 131.51733398 C-2.83548269 137.85701453 -12.25331637 143.32281577 -22.0625 148.125 C-22.6694873 148.43268311 -23.27647461 148.74036621 -23.90185547 149.05737305 C-28.05126966 151.0053277 -30.62038004 151.30037559 -35 150 C-37.59319384 148.88065584 -40.06095356 147.73058461 -42.5625 146.4375 C-43.26068848 146.08107422 -43.95887695 145.72464844 -44.67822266 145.35742188 C-64.3397542 135.17547744 -84.95902787 121.51514894 -93.16015625 99.94921875 C-93.86185829 97.64176134 -94.48938941 95.35625511 -95 93 C-96.65 92.67 -98.3 92.34 -100 92 C-100 82.43 -100 72.86 -100 63 C-97.525 62.505 -97.525 62.505 -95 62 C-95 45.83 -95 29.66 -95 13 C-84.22194179 7.6109709 -74.51024459 2.84040469 -63 0 C-62.3390332 -0.16371094 -61.67806641 -0.32742187 -60.99707031 -0.49609375 C-41.39321176 -5.0820133 -19.51196214 -4.88784506 0 0 Z " fill="#243C61" transform="translate(131,26)"/>
<path d="M0 0 C2.05321165 0.02379753 4.10513022 0.0204995 6.15844727 0.01391602 C17.16523204 0.03600095 27.57264274 1.27035144 38.04321289 4.71118164 C39.05665771 5.03554199 39.05665771 5.03554199 40.09057617 5.36645508 C45.90731174 7.2676775 51.39280162 9.60472601 56.85571289 12.33618164 C56.85571289 25.86618164 56.85571289 39.39618164 56.85571289 53.33618164 C42.84052389 52.25809018 42.84052389 52.25809018 36.87646484 51.5871582 C18.51966041 49.55825863 0.3475104 49.01600991 -18.08178711 50.08618164 C-18.75172699 50.12279907 -19.42166687 50.1594165 -20.11190796 50.19714355 C-31.01194287 50.81545697 -41.29085283 52.52727593 -52.14428711 54.33618164 C-51.81428711 41.79618164 -51.48428711 29.25618164 -51.14428711 16.33618164 C-50.15428711 16.00618164 -49.16428711 15.67618164 -48.14428711 15.33618164 C-48.14428711 14.34618164 -48.14428711 13.35618164 -48.14428711 12.33618164 C-37.60063829 0.58754439 -14.981216 -0.18495328 0 0 Z " fill="#1F385D" transform="translate(98.144287109375,32.663818359375)"/>
<path d="M0 0 C0.88651245 -0.00006042 1.7730249 -0.00012085 2.68640137 -0.00018311 C20.50105484 0.01711267 38.23594836 0.64702504 55.75 4.1875 C55.09 4.5175 54.43 4.8475 53.75 5.1875 C53.811875 6.38375 53.87375 7.58 53.9375 8.8125 C53.8593263 19.97179595 43.21429247 28.94394693 35.88671875 36.31640625 C33.75 38.1875 33.75 38.1875 31.75 38.1875 C31.75 38.8475 31.75 39.5075 31.75 40.1875 C28.61983382 42.48245357 25.11882839 44.26706609 21.75 46.1875 C20.42254759 46.97289536 19.09576074 47.75941637 17.76953125 48.546875 C16.36768336 49.36543312 14.96533944 50.18314235 13.5625 51 C12.89798828 51.39711182 12.23347656 51.79422363 11.54882812 52.20336914 C7.29566633 54.64408003 3.76639278 56.15416849 -1.25 56.1875 C-4.17419734 55.36110431 -6.79394588 54.12009171 -9.5 52.75 C-10.61870483 52.20182617 -10.61870483 52.20182617 -11.76000977 51.64257812 C-18.09971006 48.44772538 -23.71259202 44.62787433 -29.25 40.1875 C-30.11109375 39.55070312 -30.9721875 38.91390625 -31.859375 38.2578125 C-40.54889471 31.7011749 -46.7990479 24.116547 -51.25 14.1875 C-51.61351562 13.57648438 -51.97703125 12.96546875 -52.3515625 12.3359375 C-53.51904629 9.54412845 -53.38610299 7.18176582 -53.25 4.1875 C-49.64632137 3.70461706 -46.0419749 3.22689976 -42.4375 2.75 C-41.43267578 2.61529297 -40.42785156 2.48058594 -39.39257812 2.34179688 C-36.34688582 1.94027474 -33.2996242 1.55792895 -30.25 1.1875 C-29.41194824 1.08381104 -28.57389648 0.98012207 -27.71044922 0.87329102 C-18.5022651 -0.11999343 -9.24998918 -0.00963585 0 0 Z " fill="#1E385E" transform="translate(99.25,109.8125)"/>
<path d="M0 0 C0.69061523 0.16628906 1.38123047 0.33257813 2.09277344 0.50390625 C26.48946418 6.48946418 26.48946418 6.48946418 34 14 C34.09813987 15.43740353 34.1279828 16.87956327 34.12939453 18.3203125 C34.13254669 19.23796387 34.13569885 20.15561523 34.13894653 21.10107422 C34.13591019 22.59791748 34.13591019 22.59791748 34.1328125 24.125 C34.13376923 25.14223145 34.13472595 26.15946289 34.13571167 27.20751953 C34.13639361 29.36295636 34.13453835 31.51839522 34.13037109 33.67382812 C34.12502305 36.98572371 34.13031563 40.29748367 34.13671875 43.609375 C34.13605797 45.69791697 34.13477681 47.78645885 34.1328125 49.875 C34.13483673 50.87289551 34.13686096 51.87079102 34.13894653 52.89892578 C34.13421829 54.27540283 34.13421829 54.27540283 34.12939453 55.6796875 C34.12859894 56.49163574 34.12780334 57.30358398 34.12698364 58.14013672 C34 60 34 60 33 61 C30.03 61 27.06 61 24 61 C24 47.14 24 33.28 24 19 C21.03 18.01 18.06 17.02 15 16 C13.576875 15.360625 12.15375 14.72125 10.6875 14.0625 C-2.89743348 8.72335315 -16.85091291 7.61222079 -31.3125 7.5625 C-31.97928772 7.55641724 -32.64607544 7.55033447 -33.33306885 7.54406738 C-50.66856411 7.44059736 -67.55956518 10.99384861 -83 19 C-83.99 19 -84.98 19 -86 19 C-85.97905273 20.03930664 -85.95810547 21.07861328 -85.93652344 22.14941406 C-85.86404326 26.01076442 -85.81817169 29.87205483 -85.78027344 33.73388672 C-85.76017607 35.40423702 -85.73289317 37.07451713 -85.69824219 38.74462891 C-85.64963881 41.1476372 -85.62701344 43.54971434 -85.609375 45.953125 C-85.58872986 46.69806213 -85.56808472 47.44299927 -85.54681396 48.21051025 C-85.54534127 51.62471702 -85.76381132 53.65467679 -87.71191406 56.50292969 C-90 58 -90 58 -95 58 C-95 43.15 -95 28.3 -95 13 C-84.22194179 7.6109709 -74.51024459 2.84040469 -63 0 C-62.3390332 -0.16371094 -61.67806641 -0.32742187 -60.99707031 -0.49609375 C-41.39321176 -5.0820133 -19.51196214 -4.88784506 0 0 Z " fill="#0876CD" transform="translate(131,26)"/>
<path d="M0 0 C0.27972656 0.83402344 0.55945312 1.66804688 0.84765625 2.52734375 C3.24692536 9.26226957 5.75679009 14.67691272 10.44921875 20.09765625 C12 22 12 22 12.95703125 24.12109375 C14.29355913 26.52884623 15.53147328 26.83834037 18 28 C19.70741204 29.47729495 21.39208158 30.9810008 23.0625 32.5 C28.23243204 36.98913161 33.76957765 40.3636153 39.8125 43.5625 C40.61244385 43.99175781 41.4123877 44.42101562 42.23657227 44.86328125 C49.69436226 48.77021398 49.69436226 48.77021398 57.86450195 48.42797852 C59.8947789 47.55148372 61.81099315 46.56288403 63.75 45.5 C64.44303223 45.13777344 65.13606445 44.77554688 65.85009766 44.40234375 C71.07374997 41.62799591 76.06201664 38.56528179 80.9609375 35.25 C83 34 83 34 85 34 C85 33.34 85 32.68 85 32 C86.46875 30.58984375 86.46875 30.58984375 88.5 28.9375 C98.14459421 20.72933472 104.59946791 11.8439853 109 0 C110.4370809 -0.05422947 111.87475462 -0.09289723 113.3125 -0.125 C114.11300781 -0.14820312 114.91351563 -0.17140625 115.73828125 -0.1953125 C118 0 118 0 121 2 C120.01 2 119.02 2 118 2 C117.95875 2.9075 117.9175 3.815 117.875 4.75 C115.56495337 19.72030219 102.78879585 32.81740227 91.0637207 41.51733398 C82.16451731 47.85701453 72.74668363 53.32281577 62.9375 58.125 C62.3305127 58.43268311 61.72352539 58.74036621 61.09814453 59.05737305 C56.94873034 61.0053277 54.37961996 61.30037559 50 60 C47.40680616 58.88065584 44.93904644 57.73058461 42.4375 56.4375 C41.73931152 56.08107422 41.04112305 55.72464844 40.32177734 55.35742188 C20.98414962 45.34321466 -0.4368408 31.54700175 -8.0546875 10.01953125 C-8.52658141 8.33384836 -8.95971069 6.63621631 -9.33203125 4.92578125 C-9.91425851 2.62070165 -9.91425851 2.62070165 -13 1 C-8.59085217 -0.10228696 -4.51617599 -0.07654536 0 0 Z " fill="#0875CC" transform="translate(46,116)"/>
<path d="M0 0 C0.33 1.32 0.66 2.64 1 4 C2.79090253 4.19466332 4.58276505 4.38051213 6.375 4.5625 C7.37273437 4.66691406 8.37046875 4.77132812 9.3984375 4.87890625 C11.984037 5.21144708 11.984037 5.21144708 14 4 C16.06250637 3.97980763 18.12561685 4.00792772 20.1875 4.0625 C25.28984174 4.10760357 29.23482985 3.76104114 34 2 C34.99 1.67 35.98 1.34 37 1 C37 1.66 37 2.32 37 3 C36.34 3 35.68 3 35 3 C35 3.66 35 4.32 35 5 C36.98 5 38.96 5 41 5 C40.34 5.33 39.68 5.66 39 6 C39 7.65 39 9.3 39 11 C39.66 11.33 40.32 11.66 41 12 C39.68 11.67 38.36 11.34 37 11 C37 9.68 37 8.36 37 7 C36.34 7 35.68 7 35 7 C35.495 12.445 35.495 12.445 36 18 C35.01 17.67 34.02 17.34 33 17 C32.505 15.515 32.505 15.515 32 14 C31.01 14.33 30.02 14.66 29 15 C28.01 15 27.02 15 26 15 C24.66018514 15.3062434 23.32488113 15.63451555 22 16 C22 15.34 22 14.68 22 14 C21.01 14.33 20.02 14.66 19 15 C18.67 15.99 18.34 16.98 18 18 C17.01 18.33 16.02 18.66 15 19 C15.33 19.33 15.66 19.66 16 20 C16.04092937 22.33297433 16.04241723 24.66705225 16 27 C13.66666667 27 11.33333333 27 9 27 C7.7315625 27.0309375 7.7315625 27.0309375 6.4375 27.0625 C4 27 4 27 3 26 C2.67950203 22.15402433 3.40444275 19.49028148 5 16 C5.66 16.33 6.32 16.66 7 17 C7.99 17.33 8.98 17.66 10 18 C10.33 17.34 10.66 16.68 11 16 C12.32 16 13.64 16 15 16 C15 15.34 15 14.68 15 14 C13.68 13.67 12.36 13.34 11 13 C11 11.02 11 9.04 11 7 C10.34 7 9.68 7 9 7 C9 8.65 9 10.3 9 12 C8.01 12 7.02 12 6 12 C6 12.66 6 13.32 6 14 C5.030625 14.33 4.06125 14.66 3.0625 15 C-0.10721418 16.60746443 -0.10721418 16.60746443 -0.62109375 18.98046875 C-0.85087251 20.97777644 -0.93411797 22.99059814 -1 25 C-0.01 25 0.98 25 2 25 C2 25.66 2 26.32 2 27 C0.35 27 -1.3 27 -3 27 C-3 18.33333333 -3 9.66666667 -3 1 C-2.01 0.67 -1.02 0.34 0 0 Z " fill="#78889D" transform="translate(87,44)"/>
<path d="M0 0 C0.33 0 0.66 0 1 0 C1 15.84 1 31.68 1 48 C-0.98 48.495 -0.98 48.495 -3 49 C-3.33 58.57 -3.66 68.14 -4 78 C-2.35 78 -0.7 78 1 78 C1.99 81.465 1.99 81.465 3 85 C-2.75 84.125 -2.75 84.125 -5 83 C-5.66 82.01 -6.32 81.02 -7 80 C-7.99 79.34 -8.98 78.68 -10 78 C-11.11782867 73.60577695 -11.13461021 69.26680101 -11.125 64.75 C-11.12886719 62.91695312 -11.12886719 62.91695312 -11.1328125 61.046875 C-11 58 -11 58 -10 56 C-11.98 56.495 -11.98 56.495 -14 57 C-13.34938905 55.32700041 -12.67966676 53.66140763 -12 52 C-11.731875 51.34 -11.46375 50.68 -11.1875 50 C-9.53344355 47.21422071 -7.33964841 45.22551922 -5 43 C-4.401875 42.401875 -3.80375 41.80375 -3.1875 41.1875 C-2.795625 40.795625 -2.40375 40.40375 -2 40 C-1.67 40.33 -1.34 40.66 -1 41 C-0.67 27.47 -0.34 13.94 0 0 Z " fill="#A5BFD3" transform="translate(35,40)"/>
<path d="M0 0 C0.78375 0.04125 1.5675 0.0825 2.375 0.125 C4.06085724 3.49671448 3.3920547 7.30078765 3.2890625 11 C3.26782318 11.88026855 3.24658386 12.76053711 3.22470093 13.66748047 C3.17840604 15.53033892 3.12947513 17.39313342 3.078125 19.25585938 C3.00032278 22.113146 2.93316199 24.97054355 2.8671875 27.828125 C2.82095152 29.63543313 2.77409732 31.44272557 2.7265625 33.25 C2.70671295 34.10835449 2.6868634 34.96670898 2.66641235 35.85107422 C2.49007421 41.89485159 2.49007421 41.89485159 1.375 44.125 C-2.5 43.25 -2.5 43.25 -3.625 42.125 C-3.81015984 39.19314355 -3.93358089 36.28298652 -4.01171875 33.34765625 C-4.03724319 32.46597275 -4.06276764 31.58428925 -4.08906555 30.67588806 C-4.14116813 28.80718963 -4.19058352 26.93841468 -4.23754883 25.06958008 C-4.31210061 22.20285778 -4.4027308 19.33693102 -4.49414062 16.47070312 C-4.5426563 14.6588804 -4.59021429 12.84703172 -4.63671875 11.03515625 C-4.66577805 10.1736647 -4.69483734 9.31217316 -4.72477722 8.42457581 C-4.76939022 6.32492774 -4.70667193 4.2235333 -4.625 2.125 C-2.625 0.125 -2.625 0.125 0 0 Z " fill="#0275D1" transform="translate(160.625,38.875)"/>
<path d="M0 0 C0.27972656 0.83402344 0.55945312 1.66804688 0.84765625 2.52734375 C3.54714761 10.10501563 6.62379994 16.00406507 12 22 C11.01 22.33 10.02 22.66 9 23 C8.67 22.34 8.34 21.68 8 21 C6.68 21.33 5.36 21.66 4 22 C3.67 23.32 3.34 24.64 3 26 C3.66 26 4.32 26 5 26 C5.66 27.65 6.32 29.3 7 31 C-1.64804969 25.16256646 -7.14525962 14.97177722 -9.33203125 4.92578125 C-9.91425851 2.62070165 -9.91425851 2.62070165 -13 1 C-8.59085217 -0.10228696 -4.51617599 -0.07654536 0 0 Z " fill="#0D75C7" transform="translate(46,116)"/>
<path d="M0 0 C0.66 0 1.32 0 2 0 C2 0.66 2 1.32 2 2 C1.34 2 0.68 2 0 2 C0 2.66 0 3.32 0 4 C1.98 4 3.96 4 6 4 C5.34 4.33 4.68 4.66 4 5 C4 6.65 4 8.3 4 10 C4.66 10.33 5.32 10.66 6 11 C4.68 10.67 3.36 10.34 2 10 C2 8.68 2 7.36 2 6 C1.34 6 0.68 6 0 6 C0.495 11.445 0.495 11.445 1 17 C0.01 16.67 -0.98 16.34 -2 16 C-2.33 15.01 -2.66 14.02 -3 13 C-3.99 13.33 -4.98 13.66 -6 14 C-6.99 14 -7.98 14 -9 14 C-10.33981486 14.3062434 -11.67511887 14.63451555 -13 15 C-13 14.34 -13 13.68 -13 13 C-13.99 13.33 -14.98 13.66 -16 14 C-16.33 14.99 -16.66 15.98 -17 17 C-17.99 17.33 -18.98 17.66 -20 18 C-19.67 18.33 -19.34 18.66 -19 19 C-18.95907063 21.33297433 -18.95758277 23.66705225 -19 26 C-21.33333333 26 -23.66666667 26 -26 26 C-27.2684375 26.0309375 -27.2684375 26.0309375 -28.5625 26.0625 C-31 26 -31 26 -32 25 C-32.32049797 21.15402433 -31.59555725 18.49028148 -30 15 C-29.34 15.33 -28.68 15.66 -28 16 C-27.01 16.33 -26.02 16.66 -25 17 C-24.67 16.34 -24.34 15.68 -24 15 C-22.68 15 -21.36 15 -20 15 C-20 14.34 -20 13.68 -20 13 C-21.32 12.67 -22.64 12.34 -24 12 C-24 11.67 -24 11.34 -24 11 C-21.36 10.34 -18.72 9.68 -16 9 C-16 9.66 -16 10.32 -16 11 C-15.13375 10.62875 -14.2675 10.2575 -13.375 9.875 C-9.44302674 8.85559952 -7.67062491 9.42687504 -4 11 C-3.66574265 8.62625139 -3.66574265 8.62625139 -4 6 C-5.9004467 4.15684329 -5.9004467 4.15684329 -8 3 C-6.865625 2.690625 -5.73125 2.38125 -4.5625 2.0625 C-1.21224901 1.37075469 -1.21224901 1.37075469 0 0 Z " fill="#2D4266" transform="translate(122,45)"/>
<path d="M0 0 C2.375 0.75 2.375 0.75 3.375 1.75 C3.705 1.09 4.035 0.43 4.375 -0.25 C5.695 -0.25 7.015 -0.25 8.375 -0.25 C4.12632106 9.13514155 -4.31876021 15.14634191 -12.625 20.75 C-12.74875 20.110625 -12.8725 19.47125 -13 18.8125 C-13.20625 18.131875 -13.4125 17.45125 -13.625 16.75 C-14.285 16.42 -14.945 16.09 -15.625 15.75 C-15.625 14.43 -15.625 13.11 -15.625 11.75 C-14.26375 11.193125 -14.26375 11.193125 -12.875 10.625 C-9.13153422 8.4653082 -7.83402417 6.40631587 -5.625 2.75 C-3.348099 -0.31886657 -3.348099 -0.31886657 0 0 Z " fill="#0C78CE" transform="translate(145.625,139.25)"/>
<path d="M0 0 C4.59241223 1.7663124 7.82819091 3.07787049 11 7 C12.64658023 13.8956784 12.04170147 21.0553235 11 28 C10.01 28.33 9.02 28.66 8 29 C7.67 30.98 7.34 32.96 7 35 C4.69 35.66 2.38 36.32 0 37 C-0.495 35.515 -0.495 35.515 -1 34 C0.98 34 2.96 34 5 34 C5 24.43 5 14.86 5 5 C3.35 4.67 1.7 4.34 0 4 C0 2.68 0 1.36 0 0 Z " fill="#D0D5D9" transform="translate(165,84)"/>
<path d="M0 0 C2.0625 0.4375 2.0625 0.4375 4 1 C4 1.66 4 2.32 4 3 C5.65 3.33 7.3 3.66 9 4 C9 4.66 9 5.32 9 6 C9.598125 6.268125 10.19625 6.53625 10.8125 6.8125 C13.04237457 8.02300334 14.45490692 8.991379 16 11 C16 12.32 16 13.64 16 15 C17.32 15.33 18.64 15.66 20 16 C19.67 16.99 19.34 17.98 19 19 C12.47266243 17.73079547 7.22210707 16.34792174 2 12 C0.5 8.6875 0.5 8.6875 0 6 C-0.66 6 -1.32 6 -2 6 C-1.125 1.125 -1.125 1.125 0 0 Z " fill="#0377D4" transform="translate(51,136)"/>
<path d="M0 0 C0.66 0.33 1.32 0.66 2 1 C2.02527002 7.53278786 2.04283292 14.06556321 2.05493164 20.59838867 C2.05997317 22.82267732 2.06680623 25.04696263 2.07543945 27.27124023 C2.08751298 30.46078309 2.09322996 33.65028229 2.09765625 36.83984375 C2.10281754 37.84087631 2.10797882 38.84190887 2.11329651 39.87327576 C2.11337204 40.79415482 2.11344757 41.71503387 2.11352539 42.66381836 C2.115746 43.47878281 2.11796661 44.29374725 2.12025452 45.13340759 C2 47 2 47 1 48 C-1.97 48 -4.94 48 -8 48 C-8 34.47 -8 20.94 -8 7 C-7.67 7 -7.34 7 -7 7 C-6.99589111 8.01425049 -6.99178223 9.02850098 -6.98754883 10.07348633 C-6.96577624 13.83669858 -6.91150827 17.5988624 -6.84741211 21.36157227 C-6.82421533 22.99005077 -6.8098324 24.61867966 -6.80444336 26.24731445 C-6.79516508 28.58900841 -6.75420744 30.92833208 -6.70703125 33.26953125 C-6.7109639 33.99775589 -6.71489655 34.72598053 -6.71894836 35.47627258 C-6.70681523 37.78765918 -6.70681523 37.78765918 -6 41 C-4.35 41.99 -2.7 42.98 -1 44 C-0.67 29.48 -0.34 14.96 0 0 Z " fill="#186FB6" transform="translate(163,39)"/>
<path d="M0 0 C-0.33 0.99 -0.66 1.98 -1 3 C-1.66 3 -2.32 3 -3 3 C-3 3.99 -3 4.98 -3 6 C-3.99 6.495 -3.99 6.495 -5 7 C-5.02505615 8.03930664 -5.0501123 9.07861328 -5.07592773 10.14941406 C-5.17020926 14.01102703 -5.27037908 17.87246883 -5.37231445 21.73388672 C-5.41558489 23.40409334 -5.45726549 25.07434194 -5.49731445 26.74462891 C-5.55520851 29.14758955 -5.6188474 31.55034041 -5.68359375 33.953125 C-5.70866249 35.0705307 -5.70866249 35.0705307 -5.73423767 36.21051025 C-5.83061695 39.59509934 -5.96070174 42.7600524 -7 46 C-16.41002278 48.48063781 -16.41002278 48.48063781 -21 47 C-19.02 46.505 -19.02 46.505 -17 46 C-17 44.68 -17 43.36 -17 42 C-15.865625 41.71125 -14.73125 41.4225 -13.5625 41.125 C-12.386875 40.75375 -11.21125 40.3825 -10 40 C-8.44504302 36.89008604 -8.75923044 33.56655951 -8.68359375 30.1484375 C-8.66281265 29.37440582 -8.64203156 28.60037415 -8.62062073 27.80288696 C-8.55516552 25.32701608 -8.49625913 22.85103798 -8.4375 20.375 C-8.39431093 18.69790552 -8.35069652 17.02082193 -8.30664062 15.34375 C-8.19948829 11.22927692 -8.09820955 7.11469586 -8 3 C-2.25 0 -2.25 0 0 0 Z " fill="#143D6C" transform="translate(53,42)"/>
<path d="M0 0 C0.763125 0.061875 1.52625 0.12375 2.3125 0.1875 C2.3125 0.8475 2.3125 1.5075 2.3125 2.1875 C3.9625 2.8475 5.6125 3.5075 7.3125 4.1875 C7.3125 5.8375 7.3125 7.4875 7.3125 9.1875 C5.6625 9.5175 4.0125 9.8475 2.3125 10.1875 C1.9825 9.5275 1.6525 8.8675 1.3125 8.1875 C0.3225 9.6725 0.3225 9.6725 -0.6875 11.1875 C-2.0075 11.1875 -3.3275 11.1875 -4.6875 11.1875 C-4.97625 10.548125 -5.265 9.90875 -5.5625 9.25 C-6.51573451 7.03543921 -6.51573451 7.03543921 -8.6875 6.1875 C-8.6875 7.8375 -8.6875 9.4875 -8.6875 11.1875 C-9.6775 10.8575 -10.6675 10.5275 -11.6875 10.1875 C-11.6875 10.8475 -11.6875 11.5075 -11.6875 12.1875 C-13.3375 12.5175 -14.9875 12.8475 -16.6875 13.1875 C-16.6875 10.07492431 -16.51388376 8.07984315 -15.6875 5.1875 C-14.65689453 5.02314453 -14.65689453 5.02314453 -13.60546875 4.85546875 C-12.70441406 4.69691406 -11.80335937 4.53835937 -10.875 4.375 C-9.53501953 4.14876953 -9.53501953 4.14876953 -8.16796875 3.91796875 C-4.59138798 2.86470796 -3.73645316 0.26068278 0 0 Z " fill="#4E6280" transform="translate(60.6875,90.8125)"/>
<path d="M0 0 C-0.33 1.65 -0.66 3.3 -1 5 C-2.65 4.67 -4.3 4.34 -6 4 C-5.67 17.86 -5.34 31.72 -5 46 C-4.01 46.33 -3.02 46.66 -2 47 C-3.65 47 -5.3 47 -7 47 C-7.12662639 40.64645635 -7.21427701 34.29323711 -7.2746582 27.9387207 C-7.29982499 25.77648764 -7.33396158 23.61433982 -7.37719727 21.45239258 C-7.43775296 18.34695428 -7.46618787 15.24263903 -7.48828125 12.13671875 C-7.52699089 10.68346443 -7.52699089 10.68346443 -7.56648254 9.20085144 C-7.56753102 6.70024226 -7.53145518 4.44342326 -7 2 C-3.10735194 -1.55367597 -3.10735194 -1.55367597 0 0 Z M0 9 C0.66 9 1.32 9 2 9 C2.04943465 13.78717542 2.08573582 18.57420227 2.10986328 23.36157227 C2.11992142 24.99017932 2.13356958 26.61876832 2.15087891 28.24731445 C2.17513574 30.58809872 2.18648483 32.92864424 2.1953125 35.26953125 C2.20563507 35.99775589 2.21595764 36.72598053 2.22659302 37.47627258 C2.22742249 41.21275069 2.12883296 42.80675056 0 46 C-0.66 46 -1.32 46 -2 46 C-1.84152588 45.49694336 -1.68305176 44.99388672 -1.51977539 44.47558594 C-0.81633378 41.12523464 -0.7648616 37.80029997 -0.68359375 34.390625 C-0.6524221 33.30041046 -0.6524221 33.30041046 -0.62062073 32.18817139 C-0.55544488 29.87554009 -0.4963896 27.56279907 -0.4375 25.25 C-0.39428434 23.67837425 -0.35066908 22.10675944 -0.30664062 20.53515625 C-0.19979644 16.69021547 -0.09843976 12.84516476 0 9 Z " fill="#0F70BF" transform="translate(43,37)"/>
<path d="M0 0 C0.33 1.32 0.66 2.64 1 4 C3.97 4.495 3.97 4.495 7 5 C7.48915663 11.35903614 7.48915663 11.35903614 5.1875 14.375 C3 16 3 16 0 17 C-0.33 19.64 -0.66 22.28 -1 25 C-0.01 25 0.98 25 2 25 C2 25.66 2 26.32 2 27 C0.35 27 -1.3 27 -3 27 C-3 18.33333333 -3 9.66666667 -3 1 C-2.01 0.67 -1.02 0.34 0 0 Z " fill="#576D87" transform="translate(87,44)"/>
<path d="M0 0 C2.12398713 -0.00217399 4.24744314 -0.0203367 6.37133789 -0.03930664 C18.25366163 -0.08891244 29.15895005 1.43521032 40.45922852 5.18530273 C40.45922852 5.51530273 40.45922852 5.84530273 40.45922852 6.18530273 C38.66485352 6.37092773 38.66485352 6.37092773 36.83422852 6.56030273 C33.18326038 7.00855327 29.91397953 7.88977111 26.45922852 9.18530273 C26.78922852 8.19530273 27.11922852 7.20530273 27.45922852 6.18530273 C23.25751806 4.4819066 19.73537012 3.05839323 15.17138672 3.07177734 C14.31072098 3.07185287 13.45005524 3.07192841 12.56330872 3.07200623 C11.63822006 3.07716751 10.71313141 3.0823288 9.76000977 3.08764648 C8.80982468 3.08906143 7.85963959 3.09047638 6.88066101 3.0919342 C3.84431822 3.09753398 0.80804904 3.11008642 -2.22827148 3.12280273 C-4.28621313 3.12781776 -6.34415593 3.13238067 -8.40209961 3.13647461 C-13.44835195 3.14750334 -18.49454924 3.1647678 -23.54077148 3.18530273 C-16.86355401 -1.26617558 -7.78422356 -0.00088952 0 0 Z " fill="#134277" transform="translate(97.540771484375,32.814697265625)"/>
<path d="M0 0 C1.32 0.33 2.64 0.66 4 1 C4.33 14.86 4.66 28.72 5 43 C6.98 42.505 6.98 42.505 9 42 C9.93423645 45.01031744 10.04449911 45.86650268 9 49 C3.125 47.125 3.125 47.125 2 46 C1.88321262 44.62990104 1.8328182 43.25403745 1.81054688 41.87915039 C1.79382935 41.00476822 1.77711182 40.13038605 1.7598877 39.22950745 C1.74631226 38.27849655 1.73273682 37.32748566 1.71875 36.34765625 C1.70034058 35.37718857 1.68193115 34.40672089 1.66296387 33.40684509 C1.6040111 30.29212704 1.55128711 27.17735317 1.5 24.0625 C1.43250022 19.96993163 1.35880469 15.877545 1.28125 11.78515625 C1.26767456 10.83616959 1.25409912 9.88718292 1.2401123 8.90943909 C1.22339478 8.03190475 1.20667725 7.15437042 1.18945312 6.25024414 C1.17692505 5.4760463 1.16439697 4.70184845 1.15148926 3.90419006 C1.11282309 1.91325257 1.11282309 1.91325257 0 0 Z " fill="#D8F9FE" transform="translate(163,38)"/>
<path d="M0 0 C1.28357682 0.64178841 2.55597378 1.30674416 3.8125 2 C6.19645458 3.08980781 8.422113 3.57035217 11 4 C11 6.31 11 8.62 11 11 C8.66666667 11 6.33333333 11 4 11 C3.154375 11.020625 2.30875 11.04125 1.4375 11.0625 C-1 11 -1 11 -2 10 C-2.32049797 6.15402433 -1.59555725 3.49028148 0 0 Z " fill="#697B94" transform="translate(92,60)"/>
<path d="M0 0 C0.33 0 0.66 0 1 0 C1.33 5.61 1.66 11.22 2 17 C2.99 17.33 3.98 17.66 5 18 C5 18.99 5 19.98 5 21 C6.98 21 8.96 21 11 21 C11.66 23.31 12.32 25.62 13 28 C7.25 27.125 7.25 27.125 5 26 C4.34 25.01 3.68 24.02 3 23 C2.01 22.34 1.02 21.68 0 21 C-1.12436995 16.58652484 -1.13458144 12.22431284 -1.125 7.6875 C-1.12757812 6.45386719 -1.13015625 5.22023438 -1.1328125 3.94921875 C-1 1 -1 1 0 0 Z " fill="#D3DCE6" transform="translate(25,97)"/>
<path d="M0 0 C0.66 0 1.32 0 2 0 C2.66 0.99 3.32 1.98 4 3 C4.66 2.67 5.32 2.34 6 2 C8.125 2.9375 8.125 2.9375 10 4 C10 5.98 10 7.96 10 10 C8.68 9.67 7.36 9.34 6 9 C6 9.66 6 10.32 6 11 C5.01 11 4.02 11 3 11 C2.34 10.34 1.68 9.68 1 9 C0.34 8.67 -0.32 8.34 -1 8 C-1 8.99 -1 9.98 -1 11 C-1.66 11 -2.32 11 -3 11 C-3 9.02 -3 7.04 -3 5 C-3.66 4.67 -4.32 4.34 -5 4 C-3.35 3.67 -1.7 3.34 0 3 C0 2.01 0 1.02 0 0 Z " fill="#304367" transform="translate(87,89)"/>
<path d="M0 0 C0.33 0.66 0.66 1.32 1 2 C1.66 2 2.32 2 3 2 C3.33 1.34 3.66 0.68 4 0 C4.66 0.99 5.32 1.98 6 3 C6.66 2.01 7.32 1.02 8 0 C8.66 0 9.32 0 10 0 C10 0.99 10 1.98 10 3 C10.66 3 11.32 3 12 3 C12.33 2.01 12.66 1.02 13 0 C14.32 0.33 15.64 0.66 17 1 C16.01 1 15.02 1 14 1 C14 1.66 14 2.32 14 3 C14.99 3.33 15.98 3.66 17 4 C16.67 4.99 16.34 5.98 16 7 C14.02 7 12.04 7 10 7 C10 6.34 10 5.68 10 5 C9.01 5 8.02 5 7 5 C7 5.66 7 6.32 7 7 C4.69 7 2.38 7 0 7 C0 4.69 0 2.38 0 0 Z " fill="#A7B7CB" transform="translate(108,93)"/>
<path d="M0 0 C-0.69867188 0.17015625 -1.39734375 0.3403125 -2.1171875 0.515625 C-3.02726562 0.75796875 -3.93734375 1.0003125 -4.875 1.25 C-6.23238281 1.59804688 -6.23238281 1.59804688 -7.6171875 1.953125 C-10.50654092 3.22254585 -10.75558114 4.20697101 -12 7 C-17.01726146 9.06593119 -20.72564618 9.07639874 -26 8 C-26.33 8.66 -26.66 9.32 -27 10 C-27.66 9.34 -28.32 8.68 -29 8 C-5.3400872 -1.74788407 -5.3400872 -1.74788407 0 0 Z " fill="#1F7CC7" transform="translate(72,27)"/>
<path d="M0 0 C1.32 0 2.64 0 4 0 C4 0.66 4 1.32 4 2 C6.64 2 9.28 2 12 2 C10.25 5.875 10.25 5.875 8 7 C6.12137125 6.91255632 4.24544819 6.75824458 2.375 6.5625 C1.37210937 6.46066406 0.36921875 6.35882813 -0.6640625 6.25390625 C-1.43492188 6.17011719 -2.20578125 6.08632812 -3 6 C-3.33 4.68 -3.66 3.36 -4 2 C-2.68 2 -1.36 2 0 2 C0 1.34 0 0.68 0 0 Z " fill="#0377D4" transform="translate(96,168)"/>
<path d="M0 0 C4.59241223 1.7663124 7.82819091 3.07787049 11 7 C12.64658023 13.8956784 12.04170147 21.0553235 11 28 C10.34 28 9.68 28 9 28 C9 20.74 9 13.48 9 6 C4.545 5.01 4.545 5.01 0 4 C0 2.68 0 1.36 0 0 Z " fill="#DFE0DE" transform="translate(165,84)"/>
<path d="M0 0 C0.66 2.31 1.32 4.62 2 7 C1.34 7 0.68 7 0 7 C0 6.34 0 5.68 0 5 C-3.96 6.98 -3.96 6.98 -8 9 C-8.268125 8.05125 -8.53625 7.1025 -8.8125 6.125 C-9.74986588 2.74732727 -9.74986588 2.74732727 -13 1 C-8.59085217 -0.10228696 -4.51617599 -0.07654536 0 0 Z " fill="#0760A9" transform="translate(46,116)"/>
<path d="M0 0 C0.33 0 0.66 0 1 0 C1 9.57 1 19.14 1 29 C-2.375 24.5 -2.375 24.5 -2.29296875 20.453125 C-2.28330078 19.60878906 -2.27363281 18.76445313 -2.26367188 17.89453125 C-2.23853516 17.02183594 -2.21339844 16.14914063 -2.1875 15.25 C-2.17396484 14.36183594 -2.16042969 13.47367188 -2.14648438 12.55859375 C-2.11121309 10.37177422 -2.06192752 8.18620034 -2 6 C-1.34 6 -0.68 6 0 6 C0 4.02 0 2.04 0 0 Z " fill="#B1B7C2" transform="translate(30,89)"/>
<path d="M0 0 C0.33 0 0.66 0 1 0 C1.33 12.21 1.66 24.42 2 37 C3.98 37.66 5.96 38.32 8 39 C8.66 37.68 9.32 36.36 10 35 C10.042721 36.66611905 10.04063832 38.33382885 10 40 C9.505 40.495 9.505 40.495 9 41 C6.03 41 3.06 41 0 41 C0 27.47 0 13.94 0 0 Z " fill="#1863A5" transform="translate(155,46)"/>
<path d="M0 0 C0.99 0.33 1.98 0.66 3 1 C4.1875 3.5625 4.1875 3.5625 5 6 C5.99 4.02 6.98 2.04 8 0 C8.99 0 9.98 0 11 0 C11 3.3 11 6.6 11 10 C10.34 10 9.68 10 9 10 C8.67 8.68 8.34 7.36 8 6 C7.34 7.32 6.68 8.64 6 10 C5.34 10 4.68 10 4 10 C3.67 9.01 3.34 8.02 3 7 C2.67 7.99 2.34 8.98 2 10 C1.34 10 0.68 10 0 10 C0 6.7 0 3.4 0 0 Z " fill="#CBD8E4" transform="translate(72,46)"/>
<path d="M0 0 C0.99 0.33 1.98 0.66 3 1 C3.375 3.25 3.375 3.25 3 6 C0.06221639 8.35022689 -2.43302938 9.81100979 -6 11 C-8.7017287 13.25144059 -10.27568334 15.96191826 -12 19 C-13 17 -13 17 -12.22265625 14.6171875 C-11.83980469 13.71226563 -11.45695313 12.80734375 -11.0625 11.875 C-10.68222656 10.96492188 -10.30195313 10.05484375 -9.91015625 9.1171875 C-9.60980469 8.41851562 -9.30945313 7.71984375 -9 7 C-6.36 6.67 -3.72 6.34 -1 6 C-0.67 4.02 -0.34 2.04 0 0 Z " fill="#E1E9ED" transform="translate(173,113)"/>
<path d="M0 0 C0.33 0 0.66 0 1 0 C1.04941382 5.35683849 1.08572607 10.7135445 1.10986328 16.07055664 C1.11992491 17.89317129 1.1335756 19.71576979 1.15087891 21.53833008 C1.17512021 24.15710435 1.18648138 26.77566531 1.1953125 29.39453125 C1.20563507 30.21025101 1.21595764 31.02597076 1.22659302 31.8664093 C1.2273686 35.77130756 1.21650661 37.67524008 -1 41 C-2.9453125 41.51171875 -2.9453125 41.51171875 -5.125 41.6875 C-7.043125 41.8421875 -7.043125 41.8421875 -9 42 C-9 41.01 -9 40.02 -9 39 C-7.865625 38.71125 -6.73125 38.4225 -5.5625 38.125 C-4.386875 37.75375 -3.21125 37.3825 -2 37 C-0.44504302 33.89008604 -0.75923044 30.56655951 -0.68359375 27.1484375 C-0.66281265 26.37440582 -0.64203156 25.60037415 -0.62062073 24.80288696 C-0.55516552 22.32701608 -0.49625913 19.85103798 -0.4375 17.375 C-0.39431093 15.69790552 -0.35069652 14.02082193 -0.30664062 12.34375 C-0.19948829 8.22927692 -0.09820955 4.11469586 0 0 Z " fill="#0A4D8D" transform="translate(45,45)"/>
<path d="M0 0 C1.4370809 -0.05422947 2.87475462 -0.09289723 4.3125 -0.125 C5.11300781 -0.14820312 5.91351563 -0.17140625 6.73828125 -0.1953125 C9 0 9 0 12 2 C11.01 2 10.02 2 9 2 C8.87625 3.093125 8.7525 4.18625 8.625 5.3125 C8 9 8 9 6 12 C6 9.69 6 7.38 6 5 C5.01 5 4.02 5 3 5 C3 4.34 3 3.68 3 3 C2.01 3 1.02 3 0 3 C-0.66 4.98 -1.32 6.96 -2 9 C-2.33 8.34 -2.66 7.68 -3 7 C-2.06421005 4.64018187 -1.06652192 2.30368736 0 0 Z " fill="#1561A0" transform="translate(155,116)"/>
<path d="M0 0 C1.64574566 -0.02688151 3.29161413 -0.04634123 4.9375 -0.0625 C5.85402344 -0.07410156 6.77054687 -0.08570313 7.71484375 -0.09765625 C10 0 10 0 11 1 C11.125 3.5 11.125 3.5 11 6 C10 7 10 7 7.4375 7.0625 C6.2309375 7.0315625 6.2309375 7.0315625 5 7 C4.67 5.35 4.34 3.7 4 2 C3.34 2 2.68 2 2 2 C2 3.65 2 5.3 2 7 C1.34 7 0.68 7 0 7 C0 4.69 0 2.38 0 0 Z " fill="#8D9CAB" transform="translate(94,49)"/>
<path d="M0 0 C0.99 0.33 1.98 0.66 3 1 C3 1.66 3 2.32 3 3 C3.66 3 4.32 3 5 3 C4.67 4.98 4.34 6.96 4 9 C2.35 8.67 0.7 8.34 -1 8 C-1.33 9.32 -1.66 10.64 -2 12 C-2.99 10.68 -3.98 9.36 -5 8 C-2.2 2.2 -2.2 2.2 0 0 Z " fill="#0678D3" transform="translate(151,131)"/>
<path d="M0 0 C0 1.65 0 3.3 0 5 C-1.32 4.01 -2.64 3.02 -4 2 C-4 3.65 -4 5.3 -4 7 C-4.99 6.67 -5.98 6.34 -7 6 C-7 6.66 -7 7.32 -7 8 C-8.65 8.33 -10.3 8.66 -12 9 C-12 5.88742431 -11.82638376 3.89234315 -11 1 C-7.26513121 0.4254048 -3.78706732 0 0 0 Z " fill="#708299" transform="translate(56,95)"/>
<path d="M0 0 C0.66 0 1.32 0 2 0 C3.51663393 3.03326785 3.17097474 5.878846 3.1875 9.25 C3.20167969 10.55453125 3.21585938 11.8590625 3.23046875 13.203125 C3.00922548 16.84801408 2.32827399 19.61893893 1 23 C0.67 23 0.34 23 0 23 C0 15.41 0 7.82 0 0 Z " fill="#C1C4C9" transform="translate(170,93)"/>
<path d="M0 0 C3.61322401 1.806612 4.83748791 2.66418971 7.25 5.625 C7.77078125 6.25664062 8.2915625 6.88828125 8.828125 7.5390625 C9.40820312 8.26222656 9.40820312 8.26222656 10 9 C6.21369298 8.24432948 4.5958956 6.87402727 2 4 C-0.27292941 5.01889939 -1.83024561 5.80902631 -3.5 7.6875 C-3.995 8.120625 -4.49 8.55375 -5 9 C-6.32 8.67 -7.64 8.34 -9 8 C-6.03 5.36 -3.06 2.72 0 0 Z " fill="#5CBCD7" transform="translate(99,134)"/>
<path d="M0 0 C1.9375 0.3125 1.9375 0.3125 4 1 C5.15941038 4.47823115 4.70820884 6.45895578 4 10 C3.67 10 3.34 10 3 10 C3 8.02 3 6.04 3 4 C2.01 4.33 1.02 4.66 0 5 C-0.33 6.65 -0.66 8.3 -1 10 C-1.33 10 -1.66 10 -2 10 C-2 8.02 -2 6.04 -2 4 C-2.99 4.33 -3.98 4.66 -5 5 C-5.33 6.65 -5.66 8.3 -6 10 C-6.33 10 -6.66 10 -7 10 C-7 7.36 -7 4.72 -7 2 C-2.25 0.875 -2.25 0.875 0 2 C0 1.34 0 0.68 0 0 Z " fill="#879BB3" transform="translate(112,61)"/>
<path d="M0 0 C0.0825 0.61875 0.165 1.2375 0.25 1.875 C0.81258459 4.18437567 0.81258459 4.18437567 3.0625 5.25 C3.701875 5.4975 4.34125 5.745 5 6 C4.01 6.495 4.01 6.495 3 7 C3 7.99 3 8.98 3 10 C3.66 10.66 4.32 11.32 5 12 C4.236875 11.814375 3.47375 11.62875 2.6875 11.4375 C-0.08967375 10.77180827 -0.08967375 10.77180827 -3 12 C-3 8.37 -3 4.74 -3 1 C-2.01 0.67 -1.02 0.34 0 0 Z " fill="#8495A9" transform="translate(87,44)"/>
<path d="M0 0 C3.78630702 0.75567052 5.4041044 2.12597273 8 5 C10.88437779 3.70700306 12.87219421 2.34058637 15 0 C15.99 0.33 16.98 0.66 18 1 C15.36 3.64 12.72 6.28 10 9 C6.38677599 7.193388 5.16251209 6.33581029 2.75 3.375 C2.22921875 2.74335937 1.7084375 2.11171875 1.171875 1.4609375 C0.78515625 0.97882813 0.3984375 0.49671875 0 0 Z " fill="#68D1E8" transform="translate(91,122)"/>
<path d="M0 0 C1.32 0.33 2.64 0.66 4 1 C4.2475 2.051875 4.495 3.10375 4.75 4.1875 C5.79078431 7.82655438 7.33689136 10.2561911 10 13 C10.99 13.33 11.98 13.66 13 14 C13 14.99 13 15.98 13 17 C13.99 17.33 14.98 17.66 16 18 C15.67 18.99 15.34 19.98 15 21 C13.30549113 19.35532963 11.64345779 17.69494994 10 16 C9.49597656 15.48050781 8.99195313 14.96101562 8.47265625 14.42578125 C4.4598217 10.0453588 2.12996897 5.5253901 0 0 Z " fill="#124175" transform="translate(48,123)"/>
<path d="M0 0 C0.66 0.33 1.32 0.66 2 1 C1.8125 3.3125 1.8125 3.3125 1 6 C-1.5 7.6875 -1.5 7.6875 -4 9 C-4.33 9.66 -4.66 10.32 -5 11 C-5.66 11 -6.32 11 -7 11 C-7.33 12.65 -7.66 14.3 -8 16 C-8.99 16.33 -9.98 16.66 -11 17 C-10.34938905 15.32700041 -9.67966676 13.66140763 -9 12 C-8.731875 11.34 -8.46375 10.68 -8.1875 10 C-6.54166266 7.22806342 -4.30026369 5.2427571 -2 3 C-1.34 2.01 -0.68 1.02 0 0 Z " fill="#E6E7E4" transform="translate(32,80)"/>
<path d="M0 0 C0.33 0 0.66 0 1 0 C1.06058594 1.05960937 1.12117188 2.11921875 1.18359375 3.2109375 C1.26800127 4.59897221 1.35264917 5.98699232 1.4375 7.375 C1.47681641 8.07367188 1.51613281 8.77234375 1.55664062 9.4921875 C1.74280134 13.37360492 1.74280134 13.37360492 3 17 C3.039992 18.99960012 3.04346799 21.00047242 3 23 C0 21 0 21 -0.6796875 18.33203125 C-1.02270493 14.76381339 -1.13257058 11.27216814 -1.125 7.6875 C-1.12757812 6.45386719 -1.13015625 5.22023438 -1.1328125 3.94921875 C-1 1 -1 1 0 0 Z " fill="#E4E4E5" transform="translate(25,97)"/>
<path d="M0 0 C0 0.66 0 1.32 0 2 C-0.66 2 -1.32 2 -2 2 C-2 2.66 -2 3.32 -2 4 C-0.02 4 1.96 4 4 4 C3.01 4.495 3.01 4.495 2 5 C2 6.65 2 8.3 2 10 C2.66 10.33 3.32 10.66 4 11 C2.68 10.67 1.36 10.34 0 10 C0 8.68 0 7.36 0 6 C-0.66 6 -1.32 6 -2 6 C-2 7.65 -2 9.3 -2 11 C-2.66 11 -3.32 11 -4 11 C-5.34516765 4.64102564 -5.34516765 4.64102564 -3.6875 1.5625 C-2 0 -2 0 0 0 Z " fill="#D0DCE8" transform="translate(124,45)"/>
<path d="M0 0 C0.66 0.33 1.32 0.66 2 1 C1.67 2.65 1.34 4.3 1 6 C-0.65 5.67 -2.3 5.34 -4 5 C-4 12.59 -4 20.18 -4 28 C-4.33 28 -4.66 28 -5 28 C-5.14489234 23.89620302 -5.23393542 19.79306033 -5.3125 15.6875 C-5.35439453 14.52025391 -5.39628906 13.35300781 -5.43945312 12.15039062 C-5.45556641 11.03212891 -5.47167969 9.91386719 -5.48828125 8.76171875 C-5.51446533 7.73006592 -5.54064941 6.69841309 -5.56762695 5.63549805 C-5 3 -5 3 -2.59448242 1.07739258 C-1.73830322 0.72185303 -0.88212402 0.36631348 0 0 Z " fill="#1875BC" transform="translate(41,36)"/>
<path d="M0 0 C1.67542976 0.28604898 3.34385343 0.61781233 5 1 C6.125 4.75 6.125 4.75 5 7 C3.33388095 7.042721 1.66617115 7.04063832 0 7 C-1 6 -1 6 -1.125 3.5 C-1 1 -1 1 0 0 Z " fill="#A3B1C0" transform="translate(113,49)"/>
<path d="M0 0 C0.99 0.33 1.98 0.66 3 1 C3 1.99 3 2.98 3 4 C3.66 4 4.32 4 5 4 C5.33 2.68 5.66 1.36 6 0 C6.66 0 7.32 0 8 0 C8 2.31 8 4.62 8 7 C5.36 7 2.72 7 0 7 C0 4.69 0 2.38 0 0 Z " fill="#A6B7CE" transform="translate(98,92)"/>
<path d="M0 0 C-4.92016243 4.92016243 -12.43827219 4.55632445 -19 5 C-15.96944727 2.45547931 -13.31122782 1.2760998 -9.5 0.25 C-8.5615625 -0.01296875 -7.623125 -0.2759375 -6.65625 -0.546875 C-4.00702963 -0.99880083 -2.50751308 -0.875264 0 0 Z " fill="#134377" transform="translate(73,37)"/>
<path d="M0 0 C1.65 0 3.3 0 5 0 C5.625 2.375 5.625 2.375 6 5 C5.34 5.66 4.68 6.32 4 7 C1.875 6.625 1.875 6.625 0 6 C-1.125 2.25 -1.125 2.25 0 0 Z " fill="#8797B0" transform="translate(146,96)"/>
<path d="M0 0 C-5.28323721 4.21666819 -11.68725535 8.05811833 -18.5625 7.9375 C-21 7 -21 7 -23 5 C-22.05640625 5.08701172 -22.05640625 5.08701172 -21.09375 5.17578125 C-14.98155563 5.49796017 -11.7121408 4.67798678 -6.76171875 1.11328125 C-4.44925249 -0.34803335 -2.67385007 -0.41778907 0 0 Z " fill="#2E7DB7" transform="translate(117,169)"/>
<path d="M0 0 C0 4.45351799 -1.55160412 7.32740617 -4 11 C-5.65532623 12.01866229 -7.32260138 13.01810813 -9 14 C-10.75149165 15.58245275 -10.75149165 15.58245275 -12 17 C-12.66 16.67 -13.32 16.34 -14 16 C-13.40832031 15.43152344 -12.81664062 14.86304688 -12.20703125 14.27734375 C-7.5968811 9.77248251 -3.5499655 5.38220575 0 0 Z " fill="#1166B0" transform="translate(150,128)"/>
<path d="M0 0 C1.66611905 -0.042721 3.33382885 -0.04063832 5 0 C6 1 6 1 6.0625 3.5625 C6.041875 4.366875 6.02125 5.17125 6 6 C4.02 6.33 2.04 6.66 0 7 C0 4.69 0 2.38 0 0 Z " fill="#8495AC" transform="translate(138,95)"/>
<path d="M0 0 C1.66611905 -0.042721 3.33382885 -0.04063832 5 0 C6 1 6 1 6.0625 3.5625 C6.041875 4.366875 6.02125 5.17125 6 6 C4.35 6.33 2.7 6.66 1 7 C0.67 4.69 0.34 2.38 0 0 Z " fill="#889BB2" transform="translate(62,94)"/>
<path d="M0 0 C0.33 0 0.66 0 1 0 C1 2.31 1 4.62 1 7 C2.65 7 4.3 7 6 7 C5.34 9.97 4.68 12.94 4 16 C3.67 15.01 3.34 14.02 3 13 C2.01 12.67 1.02 12.34 0 12 C-0.19573608 10.56359829 -0.38127816 9.12580496 -0.5625 7.6875 C-0.66691406 6.88699219 -0.77132812 6.08648437 -0.87890625 5.26171875 C-1 3 -1 3 0 0 Z " fill="#2F4465" transform="translate(80,49)"/>
<path d="M0 0 C1.32 0 2.64 0 4 0 C4 2.97 4 5.94 4 9 C2.68 8.34 1.36 7.68 0 7 C-0.93580311 4.12060581 -1.37245106 2.74490212 0 0 Z " fill="#1F3B60" transform="translate(40,89)"/>
<path d="M0 0 C1.32 0.33 2.64 0.66 4 1 C3.01 1 2.02 1 1 1 C1 1.66 1 2.32 1 3 C1.99 3.33 2.98 3.66 4 4 C3.67 4.99 3.34 5.98 3 7 C1.02 7 -0.96 7 -3 7 C-2.67 6.01 -2.34 5.02 -2 4 C-2.99 4 -3.98 4 -5 4 C-4.67 3.34 -4.34 2.68 -4 2 C-3.01 2.33 -2.02 2.66 -1 3 C-0.67 2.01 -0.34 1.02 0 0 Z " fill="#8293A9" transform="translate(121,93)"/>
<path d="M0 0 C0.33 1.32 0.66 2.64 1 4 C-1.31 4.66 -3.62 5.32 -6 6 C-6.33 7.98 -6.66 9.96 -7 12 C-7.99 12 -8.98 12 -10 12 C-9.67 10.35 -9.34 8.7 -9 7 C-8.34 7 -7.68 7 -7 7 C-6.773125 6.401875 -6.54625 5.80375 -6.3125 5.1875 C-4.66188867 2.43648112 -2.8027919 1.47515363 0 0 Z " fill="#E0E2DF" transform="translate(34,84)"/>
<path d="M0 0 C1.32 0 2.64 0 4 0 C4 0.66 4 1.32 4 2 C4.99 2.33 5.98 2.66 7 3 C5.37660195 4.70884005 3.70680947 6.37446717 2 8 C1.34 8 0.68 8 0 8 C0.33 7.01 0.66 6.02 1 5 C0.67 4.67 0.34 4.34 0 4 C0 2.68 0 1.36 0 0 Z " fill="#33819F" transform="translate(99,120)"/>
<path d="M0 0 C0.391875 0.639375 0.78375 1.27875 1.1875 1.9375 C3.38472296 4.43778819 4.75791433 4.64950425 8 5 C8.66 3.68 9.32 2.36 10 1 C10.042721 2.66611905 10.04063832 4.33382885 10 6 C9 7 9 7 6.93359375 7.09765625 C6.10988281 7.08605469 5.28617188 7.07445313 4.4375 7.0625 C3.61121094 7.05347656 2.78492188 7.04445313 1.93359375 7.03515625 C1.29550781 7.02355469 0.65742188 7.01195313 0 7 C0 4.69 0 2.38 0 0 Z " fill="#12558C" transform="translate(155,80)"/>
<path d="M0 0 C0.99 0.33 1.98 0.66 3 1 C3.99 0.67 4.98 0.34 6 0 C6.93423645 3.01031744 7.04449911 3.86650268 6 7 C4.02 6.34 2.04 5.68 0 5 C0 3.35 0 1.7 0 0 Z " fill="#E7EAEC" transform="translate(166,80)"/>
<path d="M0 0 C1.32 0.66 2.64 1.32 4 2 C2.88121617 3.17262904 1.75476949 4.33795138 0.625 5.5 C-0.00148437 6.1496875 -0.62796875 6.799375 -1.2734375 7.46875 C-3 9 -3 9 -5 9 C-5 9.66 -5 10.32 -5 11 C-5.66 10.67 -6.32 10.34 -7 10 C-6.67 9.01 -6.34 8.02 -6 7 C-5.01 7 -4.02 7 -3 7 C-3 6.34 -3 5.68 -3 5 C-2.34 5 -1.68 5 -1 5 C-1.33 4.01 -1.66 3.02 -2 2 C-1.34 1.34 -0.68 0.68 0 0 Z " fill="#173E6E" transform="translate(136,139)"/>
<path d="M0 0 C1.1446875 0.556875 1.1446875 0.556875 2.3125 1.125 C3.6428125 1.558125 3.6428125 1.558125 5 2 C5.99 1.34 6.98 0.68 8 0 C7.67 2.64 7.34 5.28 7 8 C6.38125 7.814375 5.7625 7.62875 5.125 7.4375 C2.95839822 6.76313824 2.95839822 6.76313824 1 8 C0.67 5.36 0.34 2.72 0 0 Z " fill="#1B5478" transform="translate(96,128)"/>
<path d="M0 0 C-1.25 2.5 -1.25 2.5 -3 5 C-4.32 5 -5.64 5 -7 5 C-7 4.34 -7 3.68 -7 3 C-8.32 2.67 -9.64 2.34 -11 2 C-11 1.34 -11 0.68 -11 0 C-9.54263913 -0.19491452 -8.08405407 -0.38069358 -6.625 -0.5625 C-5.81289062 -0.66691406 -5.00078125 -0.77132812 -4.1640625 -0.87890625 C-2 -1 -2 -1 0 0 Z " fill="#0C70C0" transform="translate(107,165)"/>
<path d="M0 0 C1.32 0.33 2.64 0.66 4 1 C4 1.66 4 2.32 4 3 C5.98 2.67 7.96 2.34 10 2 C10 3.98 10 5.96 10 8 C6.05205855 6.32971708 3.18203882 3.8204435 0 1 C0 0.67 0 0.34 0 0 Z " fill="#164179" transform="translate(64,144)"/>
<path d="M0 0 C1.2065625 0.0309375 1.2065625 0.0309375 2.4375 0.0625 C2.4375 1.3825 2.4375 2.7025 2.4375 4.0625 C1.1175 4.3925 -0.2025 4.7225 -1.5625 5.0625 C-0.5725 5.7225 0.4175 6.3825 1.4375 7.0625 C-0.2125 6.7325 -1.8625 6.4025 -3.5625 6.0625 C-3.605221 4.39638095 -3.60313832 2.72867115 -3.5625 1.0625 C-2.5625 0.0625 -2.5625 0.0625 0 0 Z " fill="#A6B5C6" transform="translate(93.5625,63.9375)"/>
<path d="M0 0 C3.96 1.32 7.92 2.64 12 4 C11.67 4.99 11.34 5.98 11 7 C9.35 6.67 7.7 6.34 6 6 C6 5.34 6 4.68 6 4 C5.071875 3.7834375 5.071875 3.7834375 4.125 3.5625 C2 3 2 3 0 2 C0 1.34 0 0.68 0 0 Z " fill="#DFF6FD" transform="translate(90,173)"/>
<path d="M0 0 C2.97 0.495 2.97 0.495 6 1 C6 1.66 6 2.32 6 3 C7.32 3 8.64 3 10 3 C10 3.66 10 4.32 10 5 C10.99 5 11.98 5 13 5 C13.33 5.99 13.66 6.98 14 8 C8.76481294 6.56032356 4.36973991 4.18303389 0 1 C0 0.67 0 0.34 0 0 Z " fill="#297FC3" transform="translate(75,164)"/>
<path d="M0 0 C2.35171131 0.59861742 4.6859378 1.26924352 7 2 C7.33 2.66 7.66 3.32 8 4 C9.7325 4.7425 9.7325 4.7425 11.5 5.5 C15 7 15 7 16 9 C9.75106054 7.25709852 5.0610453 5.09190897 0 1 C0 0.67 0 0.34 0 0 Z " fill="#114881" transform="translate(74,152)"/>
<path d="M0 0 C2.475 0.99 2.475 0.99 5 2 C5 2.66 5 3.32 5 4 C7.64 4.66 10.28 5.32 13 6 C12.34 7.32 11.68 8.64 11 10 C9.35063952 8.71284028 7.70560953 7.42012981 6.0625 6.125 C5.14597656 5.40570313 4.22945312 4.68640625 3.28515625 3.9453125 C1 2 1 2 0 0 Z " fill="#287DBF" transform="translate(56,150)"/>
<path d="M0 0 C-0.33 1.32 -0.66 2.64 -1 4 C-2.175625 4.12375 -2.175625 4.12375 -3.375 4.25 C-6.14749104 4.72806339 -6.14749104 4.72806339 -7.3125 7.0625 C-7.539375 7.701875 -7.76625 8.34125 -8 9 C-9.32 8.67 -10.64 8.34 -12 8 C-10.37982158 6.66081194 -8.75370657 5.3288031 -7.125 4 C-6.22007812 3.2575 -5.31515625 2.515 -4.3828125 1.75 C-2 0 -2 0 0 0 Z " fill="#D8F3FD" transform="translate(144,152)"/>
<path d="M0 0 C0.99 0.495 0.99 0.495 2 1 C2 1.66 2 2.32 2 3 C2.8971875 3.37125 2.8971875 3.37125 3.8125 3.75 C6.28647521 5.16370012 7.43370255 6.65055383 9 9 C7.02 9 5.04 9 3 9 C0 2.25 0 2.25 0 0 Z " fill="#0C71C3" transform="translate(58,139)"/>
<path d="M0 0 C1.65 0.33 3.3 0.66 5 1 C5.042721 2.66611905 5.04063832 4.33382885 5 6 C4 7 4 7 1.4375 7.0625 C0.2309375 7.0315625 0.2309375 7.0315625 -1 7 C-1.33 5.35 -1.66 3.7 -2 2 C-1.34 2 -0.68 2 0 2 C0.33 2.99 0.66 3.98 1 5 C1.66 5.33 2.32 5.66 3 6 C3 4.35 3 2.7 3 1 C2.01 0.67 1.02 0.34 0 0 Z " fill="#D0DFEC" transform="translate(100,49)"/>
<path d="M0 0 C3.21043882 1.38188453 5.04936365 2.92421903 7.25 5.625 C8.03117187 6.57246094 8.03117187 6.57246094 8.828125 7.5390625 C9.40820312 8.26222656 9.40820312 8.26222656 10 9 C5.47723524 8.11511124 3.30690825 6.15659424 0 3 C0 2.01 0 1.02 0 0 Z " fill="#66D0E7" transform="translate(99,134)"/>
<path d="M0 0 C0.66 0 1.32 0 2 0 C2.66 0.99 3.32 1.98 4 3 C4.66 2.01 5.32 1.02 6 0 C6 2.31 6 4.62 6 7 C5.01 6.34 4.02 5.68 3 5 C2.67 5.66 2.34 6.32 2 7 C1.34 7 0.68 7 0 7 C0 4.69 0 2.38 0 0 Z " fill="#B8C9DC" transform="translate(75,93)"/>
<path d="M0 0 C0.33 0 0.66 0 1 0 C1 1.65 1 3.3 1 5 C-5.75 7 -5.75 7 -8 7 C-8 6.01 -8 5.02 -8 4 C-6.865625 3.71125 -5.73125 3.4225 -4.5625 3.125 C-3.386875 2.75375 -2.21125 2.3825 -1 2 C-0.67 1.34 -0.34 0.68 0 0 Z " fill="#0A5B9D" transform="translate(44,80)"/>
<path d="M0 0 C0 2.31 0 4.62 0 7 C-2.475 6.01 -2.475 6.01 -5 5 C-4.625 3.0625 -4.625 3.0625 -4 1 C-2 0 -2 0 0 0 Z " fill="#475572" transform="translate(94,49)"/>
<path d="M0 0 C1.2065625 0.0309375 1.2065625 0.0309375 2.4375 0.0625 C3.125 1.8125 3.125 1.8125 3.4375 4.0625 C2 6.3125 2 6.3125 0.4375 8.0625 C-1.10821278 5.74393083 -2.35868552 3.55611571 -3.5625 1.0625 C-2.5625 0.0625 -2.5625 0.0625 0 0 Z " fill="#3A4B64" transform="translate(80.5625,91.9375)"/>
<path d="M0 0 C0.33 0.66 0.66 1.32 1 2 C0.01 3.32 -0.98 4.64 -2 6 C-2.66 5.01 -3.32 4.02 -4 3 C-4.66 3 -5.32 3 -6 3 C-6.33 2.01 -6.66 1.02 -7 0 C-3.88407501 -1.03864166 -2.9737344 -1.09036928 0 0 Z " fill="#455670" transform="translate(115,92)"/>
<path d="M0 0 C1.98 0 3.96 0 6 0 C6.33 1.98 6.66 3.96 7 6 C5.02 6 3.04 6 1 6 C1 5.34 1 4.68 1 4 C1.66 4 2.32 4 3 4 C3 3.34 3 2.68 3 2 C2.01 2.33 1.02 2.66 0 3 C0 2.01 0 1.02 0 0 Z " fill="#425672" transform="translate(121,43)"/>
<path d="M0 0 C4.455 2.97 4.455 2.97 9 6 C5.23375329 7.25541557 3.62811066 6.37061958 0 5 C0 3.35 0 1.7 0 0 Z " fill="#E1F8FD" transform="translate(58,153)"/>
<path d="M0 0 C0.99 0.66 1.98 1.32 3 2 C2.67 3.32 2.34 4.64 2 6 C-0.875 5.6875 -0.875 5.6875 -4 5 C-4.66 4.01 -5.32 3.02 -6 2 C-4.68 2 -3.36 2 -2 2 C-1.34 1.34 -0.68 0.68 0 0 Z " fill="#0975CD" transform="translate(59,145)"/>
<path d="M0 0 C1.32 0.66 2.64 1.32 4 2 C3.34 2.66 2.68 3.32 2 4 C1.01 4 0.02 4 -1 4 C-1.99 5.485 -1.99 5.485 -3 7 C-6.125 7.1875 -6.125 7.1875 -9 7 C-8.443125 6.773125 -7.88625 6.54625 -7.3125 6.3125 C-4.36753316 4.64103234 -2.31843456 2.44723648 0 0 Z " fill="#134B72" transform="translate(99,137)"/>
<path d="M0 0 C2.31 0 4.62 0 7 0 C6.01 0.495 6.01 0.495 5 1 C5 1.99 5 2.98 5 4 C3.02 4.99 3.02 4.99 1 6 C0.67 4.02 0.34 2.04 0 0 Z " fill="#0A67AF" transform="translate(37,119)"/>
<path d="M0 0 C0.33 0.66 0.66 1.32 1 2 C-7.261959 5.62870159 -7.261959 5.62870159 -12 4 C-8.20458337 1.78600697 -4.24370579 0.99019802 0 0 Z " fill="#1C4A7A" transform="translate(44,85)"/>
<path d="M0 0 C0.99 0.33 1.98 0.66 3 1 C1.10595266 4.34243648 0.05908409 4.97997149 -3.6875 6.25 C-5.3271875 6.62125 -5.3271875 6.62125 -7 7 C-6.67 6.34 -6.34 5.68 -6 5 C-5.34 5 -4.68 5 -4 5 C-4 4.34 -4 3.68 -4 3 C-2.1875 1.3125 -2.1875 1.3125 0 0 Z " fill="#0F70BE" transform="translate(135,145)"/>
<path d="M0 0 C0.99 0.33 1.98 0.66 3 1 C3.33 2.98 3.66 4.96 4 7 C3.34 7 2.68 7 2 7 C2 6.34 2 5.68 2 5 C1.01 5 0.02 5 -1 5 C-1.33 5.66 -1.66 6.32 -2 7 C-1.125 2.25 -1.125 2.25 0 0 Z " fill="#ACBDD4" transform="translate(133,94)"/>
<path d="M0 0 C-0.66 2.31 -1.32 4.62 -2 7 C-4 6 -4 6 -5.125 2.9375 C-5.41375 1.968125 -5.7025 0.99875 -6 0 C-2.25 -1.125 -2.25 -1.125 0 0 Z " fill="#394966" transform="translate(80,46)"/>
<path d="M0 0 C1.32 0 2.64 0 4 0 C3.67 2.31 3.34 4.62 3 7 C2.67 6.01 2.34 5.02 2 4 C1.34 4 0.68 4 0 4 C-0.33 4.66 -0.66 5.32 -1 6 C-1.042721 4.33388095 -1.04063832 2.66617115 -1 1 C-0.67 0.67 -0.34 0.34 0 0 Z " fill="#AFC0D3" transform="translate(154,97)"/>
<path d="M0 0 C1.2065625 0.0309375 1.2065625 0.0309375 2.4375 0.0625 C2.4375 0.7225 2.4375 1.3825 2.4375 2.0625 C1.7775 2.0625 1.1175 2.0625 0.4375 2.0625 C0.4375 4.0425 0.4375 6.0225 0.4375 8.0625 C-0.2225 8.0625 -0.8825 8.0625 -1.5625 8.0625 C-1.5625 6.0825 -1.5625 4.1025 -1.5625 2.0625 C-2.2225 1.7325 -2.8825 1.4025 -3.5625 1.0625 C-2.5625 0.0625 -2.5625 0.0625 0 0 Z " fill="#8A9EBB" transform="translate(85.5625,91.9375)"/>
<path d="M0 0 C1.11375 0.433125 2.2275 0.86625 3.375 1.3125 C3.705 2.3025 4.035 3.2925 4.375 4.3125 C0.745 3.3225 -2.885 2.3325 -6.625 1.3125 C-3.625 -0.6875 -3.625 -0.6875 0 0 Z " fill="#D2EEF9" transform="translate(142.625,26.6875)"/>
<path d="M0 0 C0.33 0.66 0.66 1.32 1 2 C1.99 1.67 2.98 1.34 4 1 C3.67 1.99 3.34 2.98 3 4 C1.15234375 4.73046875 1.15234375 4.73046875 -1.0625 5.1875 C-1.79597656 5.34605469 -2.52945313 5.50460938 -3.28515625 5.66796875 C-4.13400391 5.83232422 -4.13400391 5.83232422 -5 6 C-3.35 4.02 -1.7 2.04 0 0 Z " fill="#D8F0F9" transform="translate(154,140)"/>
<path d="M0 0 C-0.33 0.66 -0.66 1.32 -1 2 C-2.9609375 2.484375 -2.9609375 2.484375 -5.375 2.75 C-6.16648437 2.84796875 -6.95796875 2.9459375 -7.7734375 3.046875 C-10 3 -10 3 -13 1 C-8.59085217 -0.10228696 -4.51617599 -0.07654536 0 0 Z " fill="#1E598D" transform="translate(46,116)"/>
<path d="M0 0 C0.66 0 1.32 0 2 0 C2.66 1.98 3.32 3.96 4 6 C2.02 6 0.04 6 -2 6 C-1.34 4.02 -0.68 2.04 0 0 Z " fill="#B1C1D6" transform="translate(93,93)"/>
<path d="M0 0 C1.98 0.99 3.96 1.98 6 3 C6 2.34 6 1.68 6 1 C6.66 1 7.32 1 8 1 C7.67 2.32 7.34 3.64 7 5 C4.625 5.125 4.625 5.125 2 5 C1.34 4.34 0.68 3.68 0 3 C0 2.01 0 1.02 0 0 Z " fill="#0463AC" transform="translate(156,80)"/>
<path d="M0 0 C0.66 0 1.32 0 2 0 C0.7508258 3.45925163 -0.67527795 6.14693203 -3 9 C-3.33 7.35 -3.66 5.7 -4 4 C-2.68 3.67 -1.36 3.34 0 3 C0 2.01 0 1.02 0 0 Z " fill="#1F7ABC" transform="translate(159,128)"/>
<path d="M0 0 C0.103125 0.639375 0.20625 1.27875 0.3125 1.9375 C0.539375 2.618125 0.76625 3.29875 1 4 C1.99 4.33 2.98 4.66 4 5 C4.6875 7.0625 4.6875 7.0625 5 9 C4.34 9 3.68 9 3 9 C3 8.34 3 7.68 3 7 C1.68 6.67 0.36 6.34 -1 6 C-0.67 4.02 -0.34 2.04 0 0 Z " fill="#E1F2F7" transform="translate(35,121)"/>
<path d="M0 0 C3 0 3 0 4.6875 1.5 C5.120625 1.995 5.55375 2.49 6 3 C5.67 3.66 5.34 4.32 5 5 C4.01 5 3.02 5 2 5 C0.3125 3 0.3125 3 -1 1 C-0.67 0.67 -0.34 0.34 0 0 Z " fill="#154D73" transform="translate(95,121)"/>
<path d="M0 0 C0 1.65 0 3.3 0 5 C-1.32 4.01 -2.64 3.02 -4 2 C-4 3.65 -4 5.3 -4 7 C-4.33 7 -4.66 7 -5 7 C-5 5.35 -5 3.7 -5 2 C-5.66 1.67 -6.32 1.34 -7 1 C-4 0 -4 0 0 0 Z " fill="#A8BAD0" transform="translate(56,95)"/>
<path d="M0 0 C0.99 0 1.98 0 3 0 C3 2.33333333 3 4.66666667 3 7 C1.68 6.67 0.36 6.34 -1 6 C-0.34 6 0.32 6 1 6 C1 5.34 1 4.68 1 4 C0.34 4 -0.32 4 -1 4 C-0.67 2.68 -0.34 1.36 0 0 Z " fill="#A8B9D1" transform="translate(127,93)"/>
<path d="M0 0 C-2.54605302 2.00047023 -4.9664636 3.82572785 -8 5 C-8.99 4.67 -9.98 4.34 -11 4 C-7.20307814 1.17438373 -4.81430721 -0.56638908 0 0 Z " fill="#1F77BB" transform="translate(117,169)"/>
<path d="M0 0 C1.98 0.66 3.96 1.32 6 2 C4.68 2.99 3.36 3.98 2 5 C0.68 4.34 -0.64 3.68 -2 3 C-1.34 2.01 -0.68 1.02 0 0 Z " fill="#1B4267" transform="translate(99,139)"/>
<path d="M0 0 C1.98 0.495 1.98 0.495 4 1 C3.01 1.495 3.01 1.495 2 2 C2 2.99 2 3.98 2 5 C2.66 5.66 3.32 6.32 4 7 C2.35 6.67 0.7 6.34 -1 6 C-0.67 4.02 -0.34 2.04 0 0 Z " fill="#D0E1ED" transform="translate(88,49)"/>
<path d="M0 0 C1.32 0.33 2.64 0.66 4 1 C4 1.66 4 2.32 4 3 C4.66 3 5.32 3 6 3 C6 3.66 6 4.32 6 5 C4.02 5.99 4.02 5.99 2 7 C2 5.68 2 4.36 2 3 C1.34 2.67 0.68 2.34 0 2 C0 1.34 0 0.68 0 0 Z " fill="#394962" transform="translate(122,94)"/>
<path d="M0 0 C2.475 0.99 2.475 0.99 5 2 C5 2.99 5 3.98 5 5 C3.35 4.67 1.7 4.34 0 4 C0 2.68 0 1.36 0 0 Z " fill="#C0C7D7" transform="translate(165,84)"/>
<path d="M0 0 C0.66 0.33 1.32 0.66 2 1 C1.67 2.65 1.34 4.3 1 6 C-0.65 5.67 -2.3 5.34 -4 5 C-2.25 1.125 -2.25 1.125 0 0 Z " fill="#1E7DC8" transform="translate(41,36)"/>
<path d="M0 0 C0.66 0.33 1.32 0.66 2 1 C1.1875 3.9375 1.1875 3.9375 0 7 C-0.99 7.33 -1.98 7.66 -3 8 C-2.690625 7.236875 -2.38125 6.47375 -2.0625 5.6875 C-1.32106407 3.81210323 -0.63771783 1.91315348 0 0 Z " fill="#F0F0ED" transform="translate(24,89)"/>
<path d="M0 0 C0.33 1.32 0.66 2.64 1 4 C-0.98 4.33 -2.96 4.66 -5 5 C-4 2 -4 2 -1.9375 0.8125 C-1.298125 0.544375 -0.65875 0.27625 0 0 Z " fill="#CAD4DF" transform="translate(34,84)"/>
<path d="M0 0 C-1.28913487 0.67154933 -2.58140204 1.33708859 -3.875 2 C-4.59429687 2.37125 -5.31359375 2.7425 -6.0546875 3.125 C-8 4 -8 4 -10 4 C-9.67 3.01 -9.34 2.02 -9 1 C-3.79245283 -1.26415094 -3.79245283 -1.26415094 0 0 Z " fill="#126EBC" transform="translate(56,41)"/>
</svg>
